<mxfile host="app.diagrams.net" modified="2022-11-24T22:47:29.612Z" agent="5.0 (Macintosh; Intel Mac OS X 10_15_7) AppleWebKit/537.36 (KHTML, like Gecko) Chrome/107.0.0.0 Safari/537.36" etag="z-3WdspC8_tHFWKv2Jhc" version="20.5.3" type="github" pages="3">
  <diagram id="C5RBs43oDa-KdzZeNtuy" name="Q1">
    <mxGraphModel dx="946" dy="621" grid="1" gridSize="10" guides="1" tooltips="1" connect="1" arrows="1" fold="1" page="1" pageScale="1" pageWidth="827" pageHeight="1169" math="0" shadow="0">
      <root>
        <mxCell id="WIyWlLk6GJQsqaUBKTNV-0" />
        <mxCell id="WIyWlLk6GJQsqaUBKTNV-1" parent="WIyWlLk6GJQsqaUBKTNV-0" />
        <mxCell id="ALzUEhH-oaATSYrZ5H7B-0" value="GeometricObject" style="swimlane;fontStyle=1;align=center;verticalAlign=top;childLayout=stackLayout;horizontal=1;startSize=26;horizontalStack=0;resizeParent=1;resizeParentMax=0;resizeLast=0;collapsible=1;marginBottom=0;" parent="WIyWlLk6GJQsqaUBKTNV-1" vertex="1">
          <mxGeometry x="260" y="230" width="180" height="170" as="geometry" />
        </mxCell>
        <mxCell id="ALzUEhH-oaATSYrZ5H7B-1" value="- color: str = &quot;green&quot;&#xa;- filled: bool = True" style="text;strokeColor=none;fillColor=none;align=left;verticalAlign=top;spacingLeft=4;spacingRight=4;overflow=hidden;rotatable=0;points=[[0,0.5],[1,0.5]];portConstraint=eastwest;" parent="ALzUEhH-oaATSYrZ5H7B-0" vertex="1">
          <mxGeometry y="26" width="180" height="44" as="geometry" />
        </mxCell>
        <mxCell id="ALzUEhH-oaATSYrZ5H7B-2" value="" style="line;strokeWidth=1;fillColor=none;align=left;verticalAlign=middle;spacingTop=-1;spacingLeft=3;spacingRight=3;rotatable=0;labelPosition=right;points=[];portConstraint=eastwest;strokeColor=inherit;" parent="ALzUEhH-oaATSYrZ5H7B-0" vertex="1">
          <mxGeometry y="70" width="180" height="8" as="geometry" />
        </mxCell>
        <mxCell id="ALzUEhH-oaATSYrZ5H7B-3" value="__init__(color: str, filled: bool)&#xa;getColor(): str&#xa;setColor()&#xa;isFilled()&#xa;__str__(): str" style="text;strokeColor=none;fillColor=none;align=left;verticalAlign=top;spacingLeft=4;spacingRight=4;overflow=hidden;rotatable=0;points=[[0,0.5],[1,0.5]];portConstraint=eastwest;" parent="ALzUEhH-oaATSYrZ5H7B-0" vertex="1">
          <mxGeometry y="78" width="180" height="92" as="geometry" />
        </mxCell>
        <mxCell id="ALzUEhH-oaATSYrZ5H7B-4" value="Circle" style="swimlane;fontStyle=1;align=center;verticalAlign=top;childLayout=stackLayout;horizontal=1;startSize=26;horizontalStack=0;resizeParent=1;resizeParentMax=0;resizeLast=0;collapsible=1;marginBottom=0;" parent="WIyWlLk6GJQsqaUBKTNV-1" vertex="1">
          <mxGeometry x="390" y="470" width="150" height="180" as="geometry" />
        </mxCell>
        <mxCell id="ALzUEhH-oaATSYrZ5H7B-5" value="- radius: float" style="text;strokeColor=none;fillColor=none;align=left;verticalAlign=top;spacingLeft=4;spacingRight=4;overflow=hidden;rotatable=0;points=[[0,0.5],[1,0.5]];portConstraint=eastwest;" parent="ALzUEhH-oaATSYrZ5H7B-4" vertex="1">
          <mxGeometry y="26" width="150" height="26" as="geometry" />
        </mxCell>
        <mxCell id="ALzUEhH-oaATSYrZ5H7B-6" value="" style="line;strokeWidth=1;fillColor=none;align=left;verticalAlign=middle;spacingTop=-1;spacingLeft=3;spacingRight=3;rotatable=0;labelPosition=right;points=[];portConstraint=eastwest;strokeColor=inherit;" parent="ALzUEhH-oaATSYrZ5H7B-4" vertex="1">
          <mxGeometry y="52" width="150" height="8" as="geometry" />
        </mxCell>
        <mxCell id="ALzUEhH-oaATSYrZ5H7B-7" value="__init__(radius: int)&#xa;getRadius(): float&#xa;setRadius()&#xa;getArea(): float&#xa;getDiameter(): float&#xa;getPerimeter(): float&#xa;printCircle(): str&#xa;" style="text;strokeColor=none;fillColor=none;align=left;verticalAlign=top;spacingLeft=4;spacingRight=4;overflow=hidden;rotatable=0;points=[[0,0.5],[1,0.5]];portConstraint=eastwest;" parent="ALzUEhH-oaATSYrZ5H7B-4" vertex="1">
          <mxGeometry y="60" width="150" height="120" as="geometry" />
        </mxCell>
        <mxCell id="ALzUEhH-oaATSYrZ5H7B-8" value="Rectangle" style="swimlane;fontStyle=1;align=center;verticalAlign=top;childLayout=stackLayout;horizontal=1;startSize=26;horizontalStack=0;resizeParent=1;resizeParentMax=0;resizeLast=0;collapsible=1;marginBottom=0;" parent="WIyWlLk6GJQsqaUBKTNV-1" vertex="1">
          <mxGeometry x="115" y="470" width="230" height="190" as="geometry" />
        </mxCell>
        <mxCell id="ALzUEhH-oaATSYrZ5H7B-9" value="- width: int = 1&#xa;- height: intÂ  = 1" style="text;strokeColor=none;fillColor=none;align=left;verticalAlign=top;spacingLeft=4;spacingRight=4;overflow=hidden;rotatable=0;points=[[0,0.5],[1,0.5]];portConstraint=eastwest;" parent="ALzUEhH-oaATSYrZ5H7B-8" vertex="1">
          <mxGeometry y="26" width="230" height="44" as="geometry" />
        </mxCell>
        <mxCell id="ALzUEhH-oaATSYrZ5H7B-10" value="" style="line;strokeWidth=1;fillColor=none;align=left;verticalAlign=middle;spacingTop=-1;spacingLeft=3;spacingRight=3;rotatable=0;labelPosition=right;points=[];portConstraint=eastwest;strokeColor=inherit;" parent="ALzUEhH-oaATSYrZ5H7B-8" vertex="1">
          <mxGeometry y="70" width="230" height="8" as="geometry" />
        </mxCell>
        <mxCell id="ALzUEhH-oaATSYrZ5H7B-11" value="__init__(width: int = 1, height: int = 1)&#xa;getWidth(): int&#xa;setWidth()&#xa;getHeight(): int&#xa;setHeight()&#xa;getArea(): int&#xa;getPerimeter(): int" style="text;strokeColor=none;fillColor=none;align=left;verticalAlign=top;spacingLeft=4;spacingRight=4;overflow=hidden;rotatable=0;points=[[0,0.5],[1,0.5]];portConstraint=eastwest;" parent="ALzUEhH-oaATSYrZ5H7B-8" vertex="1">
          <mxGeometry y="78" width="230" height="112" as="geometry" />
        </mxCell>
        <mxCell id="ALzUEhH-oaATSYrZ5H7B-14" value="Extends" style="endArrow=block;endSize=16;endFill=0;html=1;rounded=0;" parent="WIyWlLk6GJQsqaUBKTNV-1" edge="1">
          <mxGeometry width="160" relative="1" as="geometry">
            <mxPoint x="229.5" y="470" as="sourcePoint" />
            <mxPoint x="260" y="410" as="targetPoint" />
          </mxGeometry>
        </mxCell>
        <mxCell id="ALzUEhH-oaATSYrZ5H7B-15" value="Extends" style="endArrow=block;endSize=16;endFill=0;html=1;rounded=0;entryX=0.972;entryY=1.054;entryDx=0;entryDy=0;entryPerimeter=0;" parent="WIyWlLk6GJQsqaUBKTNV-1" target="ALzUEhH-oaATSYrZ5H7B-3" edge="1">
          <mxGeometry width="160" relative="1" as="geometry">
            <mxPoint x="470" y="470" as="sourcePoint" />
            <mxPoint x="500.5" y="410" as="targetPoint" />
          </mxGeometry>
        </mxCell>
      </root>
    </mxGraphModel>
  </diagram>
  <diagram id="P8duuxHA554PfPka0Tbq" name="Q2">
    <mxGraphModel dx="1401" dy="955" grid="1" gridSize="10" guides="1" tooltips="1" connect="1" arrows="1" fold="1" page="1" pageScale="1" pageWidth="850" pageHeight="1100" math="0" shadow="0">
      <root>
        <mxCell id="0" />
        <mxCell id="1" parent="0" />
        <mxCell id="Tuv7idPuYQr_YpF8_8gI-29" value="" style="edgeStyle=orthogonalEdgeStyle;rounded=0;orthogonalLoop=1;jettySize=auto;html=1;" parent="1" source="Tuv7idPuYQr_YpF8_8gI-5" target="Tuv7idPuYQr_YpF8_8gI-6" edge="1">
          <mxGeometry relative="1" as="geometry">
            <Array as="points">
              <mxPoint x="420" y="360" />
              <mxPoint x="420" y="275" />
            </Array>
          </mxGeometry>
        </mxCell>
        <mxCell id="Tuv7idPuYQr_YpF8_8gI-33" value="Talks to" style="edgeLabel;html=1;align=center;verticalAlign=middle;resizable=0;points=[];" parent="Tuv7idPuYQr_YpF8_8gI-29" vertex="1" connectable="0">
          <mxGeometry x="-0.5568" y="1" relative="1" as="geometry">
            <mxPoint x="19" y="-49" as="offset" />
          </mxGeometry>
        </mxCell>
        <mxCell id="Tuv7idPuYQr_YpF8_8gI-30" style="edgeStyle=orthogonalEdgeStyle;rounded=0;orthogonalLoop=1;jettySize=auto;html=1;" parent="1" source="Tuv7idPuYQr_YpF8_8gI-5" target="Tuv7idPuYQr_YpF8_8gI-7" edge="1">
          <mxGeometry relative="1" as="geometry">
            <Array as="points">
              <mxPoint x="440" y="370" />
              <mxPoint x="440" y="335" />
            </Array>
          </mxGeometry>
        </mxCell>
        <mxCell id="Tuv7idPuYQr_YpF8_8gI-31" value="" style="edgeStyle=orthogonalEdgeStyle;rounded=0;orthogonalLoop=1;jettySize=auto;html=1;" parent="1" source="Tuv7idPuYQr_YpF8_8gI-5" target="Tuv7idPuYQr_YpF8_8gI-8" edge="1">
          <mxGeometry relative="1" as="geometry">
            <Array as="points">
              <mxPoint x="440" y="380" />
              <mxPoint x="440" y="395" />
            </Array>
          </mxGeometry>
        </mxCell>
        <mxCell id="Tuv7idPuYQr_YpF8_8gI-32" style="edgeStyle=orthogonalEdgeStyle;rounded=0;orthogonalLoop=1;jettySize=auto;html=1;entryX=0;entryY=0.5;entryDx=0;entryDy=0;" parent="1" source="Tuv7idPuYQr_YpF8_8gI-5" target="Tuv7idPuYQr_YpF8_8gI-9" edge="1">
          <mxGeometry relative="1" as="geometry">
            <Array as="points">
              <mxPoint x="420" y="390" />
              <mxPoint x="420" y="465" />
            </Array>
          </mxGeometry>
        </mxCell>
        <mxCell id="Tuv7idPuYQr_YpF8_8gI-5" value="EventManager" style="html=1;" parent="1" vertex="1">
          <mxGeometry x="250" y="350" width="110" height="50" as="geometry" />
        </mxCell>
        <mxCell id="Tuv7idPuYQr_YpF8_8gI-6" value="Hotelier" style="html=1;" parent="1" vertex="1">
          <mxGeometry x="460" y="260" width="110" height="50" as="geometry" />
        </mxCell>
        <mxCell id="Tuv7idPuYQr_YpF8_8gI-7" value="Florist" style="html=1;" parent="1" vertex="1">
          <mxGeometry x="460" y="320" width="110" height="50" as="geometry" />
        </mxCell>
        <mxCell id="Tuv7idPuYQr_YpF8_8gI-8" value="Caterer" style="html=1;" parent="1" vertex="1">
          <mxGeometry x="460" y="380" width="110" height="50" as="geometry" />
        </mxCell>
        <mxCell id="Tuv7idPuYQr_YpF8_8gI-9" value="Musician" style="html=1;" parent="1" vertex="1">
          <mxGeometry x="460" y="440" width="110" height="50" as="geometry" />
        </mxCell>
        <mxCell id="Tuv7idPuYQr_YpF8_8gI-27" value="" style="edgeStyle=orthogonalEdgeStyle;rounded=0;orthogonalLoop=1;jettySize=auto;html=1;" parent="1" source="Tuv7idPuYQr_YpF8_8gI-10" target="Tuv7idPuYQr_YpF8_8gI-5" edge="1">
          <mxGeometry relative="1" as="geometry" />
        </mxCell>
        <mxCell id="Tuv7idPuYQr_YpF8_8gI-28" value="Contacts" style="edgeLabel;html=1;align=center;verticalAlign=middle;resizable=0;points=[];" parent="Tuv7idPuYQr_YpF8_8gI-27" vertex="1" connectable="0">
          <mxGeometry x="-0.3" y="1" relative="1" as="geometry">
            <mxPoint x="15" y="1" as="offset" />
          </mxGeometry>
        </mxCell>
        <mxCell id="Tuv7idPuYQr_YpF8_8gI-10" value="Client" style="html=1;" parent="1" vertex="1">
          <mxGeometry x="50" y="350" width="110" height="50" as="geometry" />
        </mxCell>
        <mxCell id="Tuv7idPuYQr_YpF8_8gI-34" value="Talks to" style="edgeLabel;html=1;align=center;verticalAlign=middle;resizable=0;points=[];" parent="1" vertex="1" connectable="0">
          <mxGeometry x="400" y="369" as="geometry" />
        </mxCell>
        <mxCell id="Tuv7idPuYQr_YpF8_8gI-35" value="Talks to" style="edgeLabel;html=1;align=center;verticalAlign=middle;resizable=0;points=[];" parent="1" vertex="1" connectable="0">
          <mxGeometry x="400" y="369" as="geometry" />
        </mxCell>
        <mxCell id="Tuv7idPuYQr_YpF8_8gI-36" value="Talks to" style="edgeLabel;html=1;align=center;verticalAlign=middle;resizable=0;points=[];" parent="1" vertex="1" connectable="0">
          <mxGeometry x="420" y="430" as="geometry" />
        </mxCell>
        <mxCell id="Tuv7idPuYQr_YpF8_8gI-37" value="Talks to" style="edgeLabel;html=1;align=center;verticalAlign=middle;resizable=0;points=[];" parent="1" vertex="1" connectable="0">
          <mxGeometry x="400" y="380" as="geometry" />
        </mxCell>
      </root>
    </mxGraphModel>
  </diagram>
  <diagram id="TIJGM9NQ1EUuHP0B_BlQ" name="Page-3">
    <mxGraphModel dx="1577" dy="1885" grid="1" gridSize="10" guides="1" tooltips="1" connect="1" arrows="0" fold="1" page="1" pageScale="1" pageWidth="1100" pageHeight="850" math="0" shadow="0">
      <root>
        <mxCell id="0" />
        <mxCell id="1" parent="0" />
        <mxCell id="zmP_l4DjSrjl9OurcP-i-1" value="" style="group" vertex="1" connectable="0" parent="1">
          <mxGeometry x="60" y="-820" width="980" height="790" as="geometry" />
        </mxCell>
        <mxCell id="Yosj0UVYoEPBpoqXkYmb-52" value="&quot;Musical Arrangements for the Marriage --&quot;" style="html=1;verticalAlign=bottom;startArrow=none;startFill=0;endArrow=block;startSize=8;rounded=0;strokeColor=default;" parent="zmP_l4DjSrjl9OurcP-i-1" edge="1">
          <mxGeometry x="-0.483" width="60" relative="1" as="geometry">
            <mxPoint x="849.8388136686012" y="529.8780487804878" as="sourcePoint" />
            <mxPoint x="849.8388136686012" y="549.1463414634147" as="targetPoint" />
            <Array as="points">
              <mxPoint x="979.6840747904582" y="530.8414634146342" />
              <mxPoint x="980.0000000000005" y="549.1463414634147" />
            </Array>
            <mxPoint as="offset" />
          </mxGeometry>
        </mxCell>
        <mxCell id="zmP_l4DjSrjl9OurcP-i-2" value="" style="group" vertex="1" connectable="0" parent="zmP_l4DjSrjl9OurcP-i-1">
          <mxGeometry width="875.1128304319795" height="790" as="geometry" />
        </mxCell>
        <mxCell id="Yosj0UVYoEPBpoqXkYmb-14" value="" style="shape=umlLifeline;participant=umlActor;perimeter=lifelinePerimeter;whiteSpace=wrap;html=1;container=1;collapsible=0;recursiveResize=0;verticalAlign=top;spacingTop=36;outlineConnect=0;" parent="zmP_l4DjSrjl9OurcP-i-2" vertex="1">
          <mxGeometry width="12.637008381689238" height="790" as="geometry" />
        </mxCell>
        <mxCell id="Yosj0UVYoEPBpoqXkYmb-6" value="" style="html=1;points=[];perimeter=orthogonalPerimeter;" parent="zmP_l4DjSrjl9OurcP-i-2" vertex="1">
          <mxGeometry x="3.1592520954223096" y="67.4390243902439" width="6.318504190844619" height="674.390243902439" as="geometry" />
        </mxCell>
        <mxCell id="Yosj0UVYoEPBpoqXkYmb-11" value="&lt;u&gt;client: Client&lt;/u&gt;" style="shape=umlLifeline;perimeter=lifelinePerimeter;whiteSpace=wrap;html=1;container=1;collapsible=0;recursiveResize=0;outlineConnect=0;" parent="zmP_l4DjSrjl9OurcP-i-2" vertex="1">
          <mxGeometry x="161.1218568665378" width="56.86653771760157" height="790" as="geometry" />
        </mxCell>
        <mxCell id="Yosj0UVYoEPBpoqXkYmb-45" value="" style="html=1;points=[];perimeter=orthogonalPerimeter;" parent="Yosj0UVYoEPBpoqXkYmb-11" vertex="1">
          <mxGeometry x="25.274016763378476" y="211.95121951219505" width="6.318504190844619" height="414.2682926829268" as="geometry" />
        </mxCell>
        <mxCell id="Yosj0UVYoEPBpoqXkYmb-12" value="&quot;Whoa! My best friend is getting married&quot;!" style="html=1;verticalAlign=bottom;startArrow=none;startFill=0;endArrow=block;startSize=8;rounded=0;strokeColor=default;exitX=1.1;exitY=0.029;exitDx=0;exitDy=0;exitPerimeter=0;" parent="zmP_l4DjSrjl9OurcP-i-2" source="Yosj0UVYoEPBpoqXkYmb-6" edge="1">
          <mxGeometry x="-0.483" width="60" relative="1" as="geometry">
            <mxPoint x="12.637008381689238" y="86.70731707317074" as="sourcePoint" />
            <mxPoint x="9.47775628626693" y="115.60975609756098" as="targetPoint" />
            <Array as="points">
              <mxPoint x="157.96260477111548" y="86.70731707317074" />
              <mxPoint x="157.96260477111548" y="115.60975609756098" />
            </Array>
            <mxPoint as="offset" />
          </mxGeometry>
        </mxCell>
        <mxCell id="Yosj0UVYoEPBpoqXkYmb-17" value="&quot;Let&#39;s Contact the Event Manager\n&quot;" style="html=1;verticalAlign=bottom;startArrow=none;startFill=0;endArrow=block;startSize=8;rounded=0;strokeColor=default;exitX=1.1;exitY=0.029;exitDx=0;exitDy=0;exitPerimeter=0;" parent="zmP_l4DjSrjl9OurcP-i-2" edge="1">
          <mxGeometry x="-0.483" width="60" relative="1" as="geometry">
            <mxPoint x="10.109606705351391" y="135.16707317073164" as="sourcePoint" />
            <mxPoint x="9.47775628626693" y="163.78048780487805" as="targetPoint" />
            <Array as="points">
              <mxPoint x="157.96260477111548" y="134.8780487804878" />
              <mxPoint x="157.96260477111548" y="163.78048780487805" />
            </Array>
            <mxPoint as="offset" />
          </mxGeometry>
        </mxCell>
        <mxCell id="Yosj0UVYoEPBpoqXkYmb-18" value="askEventManager()" style="html=1;verticalAlign=bottom;endArrow=block;rounded=0;strokeColor=default;" parent="zmP_l4DjSrjl9OurcP-i-2" target="Yosj0UVYoEPBpoqXkYmb-11" edge="1">
          <mxGeometry width="80" relative="1" as="geometry">
            <mxPoint x="9.47775628626693" y="211.95121951219505" as="sourcePoint" />
            <mxPoint x="60.02578981302388" y="211.95121951219505" as="targetPoint" />
          </mxGeometry>
        </mxCell>
        <mxCell id="Yosj0UVYoEPBpoqXkYmb-19" value="&lt;u&gt;eventManager: EventManager&lt;/u&gt;" style="shape=umlLifeline;perimeter=lifelinePerimeter;whiteSpace=wrap;html=1;container=1;collapsible=0;recursiveResize=0;outlineConnect=0;" parent="zmP_l4DjSrjl9OurcP-i-2" vertex="1">
          <mxGeometry x="281.1734364925856" width="56.86653771760157" height="790" as="geometry" />
        </mxCell>
        <mxCell id="Yosj0UVYoEPBpoqXkYmb-40" value="setMusicType()" style="html=1;verticalAlign=bottom;endArrow=block;rounded=0;strokeColor=default;entryX=-0.5;entryY=0.02;entryDx=0;entryDy=0;entryPerimeter=0;" parent="Yosj0UVYoEPBpoqXkYmb-19" target="Yosj0UVYoEPBpoqXkYmb-53" edge="1">
          <mxGeometry width="80" relative="1" as="geometry">
            <mxPoint x="31.5925209542231" y="520.2439024390243" as="sourcePoint" />
            <mxPoint x="82.14055448098006" y="520.2439024390243" as="targetPoint" />
          </mxGeometry>
        </mxCell>
        <mxCell id="Yosj0UVYoEPBpoqXkYmb-20" value="&lt;u&gt;hotelier: Hotelier&lt;/u&gt;" style="shape=umlLifeline;perimeter=lifelinePerimeter;whiteSpace=wrap;html=1;container=1;collapsible=0;recursiveResize=0;outlineConnect=0;" parent="zmP_l4DjSrjl9OurcP-i-2" vertex="1">
          <mxGeometry x="413.86202450032255" width="56.86653771760157" height="790" as="geometry" />
        </mxCell>
        <mxCell id="Yosj0UVYoEPBpoqXkYmb-48" value="" style="html=1;points=[];perimeter=orthogonalPerimeter;" parent="Yosj0UVYoEPBpoqXkYmb-20" vertex="1">
          <mxGeometry x="25.274016763378476" y="250.48780487804876" width="6.318504190844619" height="96.34146341463415" as="geometry" />
        </mxCell>
        <mxCell id="Yosj0UVYoEPBpoqXkYmb-21" value="&lt;u&gt;florist: Florist&lt;/u&gt;" style="shape=umlLifeline;perimeter=lifelinePerimeter;whiteSpace=wrap;html=1;container=1;collapsible=0;recursiveResize=0;outlineConnect=0;" parent="zmP_l4DjSrjl9OurcP-i-2" vertex="1">
          <mxGeometry x="546.5506125080595" width="56.86653771760157" height="790" as="geometry" />
        </mxCell>
        <mxCell id="Yosj0UVYoEPBpoqXkYmb-50" value="" style="html=1;points=[];perimeter=orthogonalPerimeter;" parent="Yosj0UVYoEPBpoqXkYmb-21" vertex="1">
          <mxGeometry x="25.274016763378476" y="366.0975609756097" width="6.318504190844619" height="38.536585365853654" as="geometry" />
        </mxCell>
        <mxCell id="Yosj0UVYoEPBpoqXkYmb-22" value="&lt;u&gt;caterer: Caterer&lt;/u&gt;" style="shape=umlLifeline;perimeter=lifelinePerimeter;whiteSpace=wrap;html=1;container=1;collapsible=0;recursiveResize=0;outlineConnect=0;" parent="zmP_l4DjSrjl9OurcP-i-2" vertex="1">
          <mxGeometry x="679.2392005157966" width="56.86653771760157" height="790" as="geometry" />
        </mxCell>
        <mxCell id="Yosj0UVYoEPBpoqXkYmb-51" value="" style="html=1;points=[];perimeter=orthogonalPerimeter;" parent="Yosj0UVYoEPBpoqXkYmb-22" vertex="1">
          <mxGeometry x="25.274016763378476" y="433.53658536585357" width="6.318504190844619" height="38.536585365853654" as="geometry" />
        </mxCell>
        <mxCell id="Yosj0UVYoEPBpoqXkYmb-38" value="&quot;Foor arrangements for the Event? --&quot;" style="html=1;verticalAlign=bottom;startArrow=none;startFill=0;endArrow=block;startSize=8;rounded=0;strokeColor=default;exitX=1.1;exitY=0.25;exitDx=0;exitDy=0;exitPerimeter=0;" parent="Yosj0UVYoEPBpoqXkYmb-22" source="Yosj0UVYoEPBpoqXkYmb-51" edge="1">
          <mxGeometry x="-0.483" width="60" relative="1" as="geometry">
            <mxPoint x="37.91102514506772" y="443.170731707317" as="sourcePoint" />
            <mxPoint x="31.5925209542231" y="457.62195121951214" as="targetPoint" />
            <Array as="points">
              <mxPoint x="149.11669890393304" y="443.170731707317" />
              <mxPoint x="148.80077369439078" y="457.62195121951214" />
              <mxPoint x="47.70470664087686" y="457.62195121951214" />
            </Array>
            <mxPoint as="offset" />
          </mxGeometry>
        </mxCell>
        <mxCell id="Yosj0UVYoEPBpoqXkYmb-23" value="&lt;u&gt;musician: Musician&lt;/u&gt;" style="shape=umlLifeline;perimeter=lifelinePerimeter;whiteSpace=wrap;html=1;container=1;collapsible=0;recursiveResize=0;outlineConnect=0;" parent="zmP_l4DjSrjl9OurcP-i-2" vertex="1">
          <mxGeometry x="818.2462927143781" width="56.86653771760157" height="790" as="geometry" />
        </mxCell>
        <mxCell id="Yosj0UVYoEPBpoqXkYmb-53" value="" style="html=1;points=[];perimeter=orthogonalPerimeter;" parent="Yosj0UVYoEPBpoqXkYmb-23" vertex="1">
          <mxGeometry x="25.274016763378476" y="520.2439024390243" width="6.318504190844619" height="48.170731707317074" as="geometry" />
        </mxCell>
        <mxCell id="Yosj0UVYoEPBpoqXkYmb-25" value="bookHotel()" style="html=1;verticalAlign=bottom;endArrow=block;rounded=0;strokeColor=default;startArrow=none;" parent="zmP_l4DjSrjl9OurcP-i-2" source="Yosj0UVYoEPBpoqXkYmb-46" target="Yosj0UVYoEPBpoqXkYmb-20" edge="1">
          <mxGeometry width="80" relative="1" as="geometry">
            <mxPoint x="331.7214700193425" y="260.12195121951214" as="sourcePoint" />
            <mxPoint x="445.45454545454567" y="260.12195121951214" as="targetPoint" />
            <Array as="points">
              <mxPoint x="331.7214700193425" y="250.48780487804876" />
              <mxPoint x="426.4990328820119" y="250.48780487804876" />
            </Array>
          </mxGeometry>
        </mxCell>
        <mxCell id="Yosj0UVYoEPBpoqXkYmb-28" value="&quot;Is the Hotel free for the even on given day?&quot;" style="html=1;verticalAlign=bottom;startArrow=none;startFill=0;endArrow=block;startSize=8;rounded=0;strokeColor=default;" parent="zmP_l4DjSrjl9OurcP-i-2" edge="1">
          <mxGeometry x="-0.483" width="60" relative="1" as="geometry">
            <mxPoint x="445.77047066408784" y="298.6585365853659" as="sourcePoint" />
            <mxPoint x="445.45454545454567" y="327.5609756097561" as="targetPoint" />
            <Array as="points">
              <mxPoint x="562.6627981947133" y="298.6585365853659" />
              <mxPoint x="562.6627981947133" y="327.5609756097561" />
            </Array>
            <mxPoint as="offset" />
          </mxGeometry>
        </mxCell>
        <mxCell id="Yosj0UVYoEPBpoqXkYmb-29" value="&quot;Hotel is booked\n&quot;" style="html=1;verticalAlign=bottom;endArrow=open;dashed=1;endSize=8;rounded=0;strokeColor=default;entryX=1;entryY=0.313;entryDx=0;entryDy=0;entryPerimeter=0;" parent="zmP_l4DjSrjl9OurcP-i-2" source="Yosj0UVYoEPBpoqXkYmb-20" target="Yosj0UVYoEPBpoqXkYmb-46" edge="1">
          <mxGeometry relative="1" as="geometry">
            <mxPoint x="401.2250161186333" y="337.1951219512195" as="sourcePoint" />
            <mxPoint x="350.67698259187625" y="337.1951219512195" as="targetPoint" />
            <Array as="points">
              <mxPoint x="350.67698259187625" y="346.82926829268297" />
            </Array>
          </mxGeometry>
        </mxCell>
        <mxCell id="Yosj0UVYoEPBpoqXkYmb-30" value="setFlowerRequirements()" style="html=1;verticalAlign=bottom;endArrow=block;rounded=0;strokeColor=default;" parent="zmP_l4DjSrjl9OurcP-i-2" source="Yosj0UVYoEPBpoqXkYmb-19" target="Yosj0UVYoEPBpoqXkYmb-21" edge="1">
          <mxGeometry x="0.1214" width="80" relative="1" as="geometry">
            <mxPoint x="312.76595744680856" y="366.0975609756097" as="sourcePoint" />
            <mxPoint x="363.3139909735657" y="366.0975609756097" as="targetPoint" />
            <Array as="points">
              <mxPoint x="375.9509993552548" y="366.0975609756097" />
            </Array>
            <mxPoint x="1" as="offset" />
          </mxGeometry>
        </mxCell>
        <mxCell id="Yosj0UVYoEPBpoqXkYmb-31" value="&quot;Carnations, Roses, and Lilies are to be used\n&quot;" style="html=1;verticalAlign=bottom;endArrow=open;dashed=1;endSize=8;rounded=0;strokeColor=default;entryX=1.3;entryY=0.479;entryDx=0;entryDy=0;entryPerimeter=0;" parent="zmP_l4DjSrjl9OurcP-i-2" source="Yosj0UVYoEPBpoqXkYmb-21" target="Yosj0UVYoEPBpoqXkYmb-46" edge="1">
          <mxGeometry relative="1" as="geometry">
            <mxPoint x="486.5248226950357" y="394.5182926829268" as="sourcePoint" />
            <mxPoint x="353.83623468729854" y="394.5182926829268" as="targetPoint" />
            <Array as="points">
              <mxPoint x="540.2321083172147" y="404.63414634146346" />
              <mxPoint x="407.54352030947797" y="404.63414634146346" />
              <mxPoint x="375.9509993552548" y="404.63414634146346" />
            </Array>
          </mxGeometry>
        </mxCell>
        <mxCell id="Yosj0UVYoEPBpoqXkYmb-34" value="&quot;Flower Decorations for the event? --&quot;" style="html=1;verticalAlign=bottom;startArrow=none;startFill=0;endArrow=block;startSize=8;rounded=0;strokeColor=default;exitX=1.4;exitY=0.35;exitDx=0;exitDy=0;exitPerimeter=0;" parent="zmP_l4DjSrjl9OurcP-i-2" source="Yosj0UVYoEPBpoqXkYmb-50" edge="1">
          <mxGeometry x="-0.483" width="60" relative="1" as="geometry">
            <mxPoint x="591.0960670535143" y="380.54878048780483" as="sourcePoint" />
            <mxPoint x="578.1431334622827" y="395" as="targetPoint" />
            <Array as="points">
              <mxPoint x="698.1947130883302" y="380.54878048780483" />
              <mxPoint x="698.1947130883302" y="395" />
              <mxPoint x="691.8762088974856" y="395" />
              <mxPoint x="590.7801418439718" y="395" />
            </Array>
            <mxPoint as="offset" />
          </mxGeometry>
        </mxCell>
        <mxCell id="Yosj0UVYoEPBpoqXkYmb-36" value="setCuisine()" style="html=1;verticalAlign=bottom;endArrow=block;rounded=0;strokeColor=default;" parent="zmP_l4DjSrjl9OurcP-i-2" source="Yosj0UVYoEPBpoqXkYmb-19" edge="1">
          <mxGeometry width="80" relative="1" as="geometry">
            <mxPoint x="325.4029658284979" y="443.170731707317" as="sourcePoint" />
            <mxPoint x="704.513217279175" y="433.53658536585357" as="targetPoint" />
            <Array as="points">
              <mxPoint x="369.6324951644102" y="433.53658536585357" />
            </Array>
          </mxGeometry>
        </mxCell>
        <mxCell id="Yosj0UVYoEPBpoqXkYmb-37" value="&quot;Chinese and Continental Cuisine will be served\n&quot;" style="html=1;verticalAlign=bottom;endArrow=open;dashed=1;endSize=8;rounded=0;strokeColor=default;entryX=0.9;entryY=0.661;entryDx=0;entryDy=0;entryPerimeter=0;" parent="zmP_l4DjSrjl9OurcP-i-2" source="Yosj0UVYoEPBpoqXkYmb-22" target="Yosj0UVYoEPBpoqXkYmb-46" edge="1">
          <mxGeometry relative="1" as="geometry">
            <mxPoint x="369.6324951644102" y="472.0731707317074" as="sourcePoint" />
            <mxPoint x="319.08446163765325" y="472.0731707317074" as="targetPoint" />
            <Array as="points">
              <mxPoint x="363.3139909735657" y="472.0731707317074" />
            </Array>
          </mxGeometry>
        </mxCell>
        <mxCell id="Yosj0UVYoEPBpoqXkYmb-41" value="&quot;Jazz and Classical will be played\n&quot;" style="html=1;verticalAlign=bottom;endArrow=open;dashed=1;endSize=8;rounded=0;strokeColor=default;entryX=1.2;entryY=0.918;entryDx=0;entryDy=0;entryPerimeter=0;" parent="zmP_l4DjSrjl9OurcP-i-2" source="Yosj0UVYoEPBpoqXkYmb-23" target="Yosj0UVYoEPBpoqXkYmb-46" edge="1">
          <mxGeometry relative="1" as="geometry">
            <mxPoint x="843.5203094777568" y="568.4146341463415" as="sourcePoint" />
            <mxPoint x="792.9722759509997" y="568.4146341463415" as="targetPoint" />
            <Array as="points">
              <mxPoint x="641.3281753707287" y="568.4146341463415" />
              <mxPoint x="420.1805286911673" y="568.4146341463415" />
              <mxPoint x="363.3139909735657" y="568.4146341463415" />
              <mxPoint x="338.0399742101871" y="568.4146341463415" />
            </Array>
          </mxGeometry>
        </mxCell>
        <mxCell id="Yosj0UVYoEPBpoqXkYmb-42" value="&quot;Good news, we are set\n&quot;" style="html=1;verticalAlign=bottom;endArrow=open;dashed=1;endSize=8;rounded=0;strokeColor=default;" parent="zmP_l4DjSrjl9OurcP-i-2" source="Yosj0UVYoEPBpoqXkYmb-19" edge="1">
          <mxGeometry relative="1" as="geometry">
            <mxPoint x="281.1734364925856" y="597.3170731707318" as="sourcePoint" />
            <mxPoint x="192.71437782076092" y="597.3170731707318" as="targetPoint" />
            <Array as="points">
              <mxPoint x="234.1005802707931" y="597.3170731707318" />
            </Array>
          </mxGeometry>
        </mxCell>
        <mxCell id="Yosj0UVYoEPBpoqXkYmb-24" value="arrange()" style="html=1;verticalAlign=bottom;endArrow=block;rounded=0;strokeColor=default;" parent="zmP_l4DjSrjl9OurcP-i-2" source="Yosj0UVYoEPBpoqXkYmb-11" target="Yosj0UVYoEPBpoqXkYmb-19" edge="1">
          <mxGeometry width="80" relative="1" as="geometry">
            <mxPoint x="199.03288201160552" y="231.21951219512195" as="sourcePoint" />
            <mxPoint x="312.76595744680856" y="231.21951219512195" as="targetPoint" />
            <Array as="points">
              <mxPoint x="281.1734364925856" y="231.21951219512195" />
            </Array>
          </mxGeometry>
        </mxCell>
        <mxCell id="Yosj0UVYoEPBpoqXkYmb-43" value="return" style="html=1;verticalAlign=bottom;endArrow=open;dashed=1;endSize=8;rounded=0;strokeColor=default;" parent="zmP_l4DjSrjl9OurcP-i-2" source="Yosj0UVYoEPBpoqXkYmb-11" target="Yosj0UVYoEPBpoqXkYmb-6" edge="1">
          <mxGeometry relative="1" as="geometry">
            <mxPoint x="161.1218568665378" y="626.2195121951219" as="sourcePoint" />
            <mxPoint x="41.07027724049003" y="626.2195121951219" as="targetPoint" />
            <Array as="points">
              <mxPoint x="85.93165699548683" y="626.2195121951219" />
            </Array>
          </mxGeometry>
        </mxCell>
        <mxCell id="Yosj0UVYoEPBpoqXkYmb-44" value="&quot;Thanks to Event Manager, all preperations are done! Phew!&quot;" style="html=1;verticalAlign=bottom;startArrow=none;startFill=0;endArrow=block;startSize=8;rounded=0;strokeColor=default;exitX=1.1;exitY=0.029;exitDx=0;exitDy=0;exitPerimeter=0;" parent="zmP_l4DjSrjl9OurcP-i-2" edge="1">
          <mxGeometry x="-0.483" width="60" relative="1" as="geometry">
            <mxPoint x="10.109606705351391" y="684.3134146341463" as="sourcePoint" />
            <mxPoint x="9.47775628626693" y="712.9268292682927" as="targetPoint" />
            <Array as="points">
              <mxPoint x="157.96260477111548" y="684.0243902439025" />
              <mxPoint x="157.96260477111548" y="712.9268292682927" />
            </Array>
            <mxPoint as="offset" />
          </mxGeometry>
        </mxCell>
        <mxCell id="Yosj0UVYoEPBpoqXkYmb-46" value="" style="html=1;points=[];perimeter=orthogonalPerimeter;" parent="zmP_l4DjSrjl9OurcP-i-2" vertex="1">
          <mxGeometry x="306.44745325596404" y="231.21951219512195" width="6.318504190844619" height="366.0975609756097" as="geometry" />
        </mxCell>
        <mxCell id="Yosj0UVYoEPBpoqXkYmb-47" value="" style="html=1;verticalAlign=bottom;endArrow=none;rounded=0;strokeColor=default;" parent="zmP_l4DjSrjl9OurcP-i-2" source="Yosj0UVYoEPBpoqXkYmb-19" target="Yosj0UVYoEPBpoqXkYmb-46" edge="1">
          <mxGeometry width="80" relative="1" as="geometry">
            <mxPoint x="309.2907801418441" y="250.48780487804876" as="sourcePoint" />
            <mxPoint x="441.9793681495812" y="250.48780487804876" as="targetPoint" />
            <Array as="points" />
          </mxGeometry>
        </mxCell>
        <mxCell id="Yosj0UVYoEPBpoqXkYmb-49" value="&quot;Arranging the Hotel for Marriage? --&quot;" style="html=1;verticalAlign=bottom;startArrow=none;startFill=0;endArrow=block;startSize=8;rounded=0;strokeColor=default;" parent="zmP_l4DjSrjl9OurcP-i-2" edge="1">
          <mxGeometry x="-0.483" width="60" relative="1" as="geometry">
            <mxPoint x="445.77047066408784" y="250.48780487804876" as="sourcePoint" />
            <mxPoint x="445.45454545454567" y="279.390243902439" as="targetPoint" />
            <Array as="points">
              <mxPoint x="562.6627981947133" y="250.48780487804876" />
              <mxPoint x="562.6627981947133" y="279.390243902439" />
            </Array>
            <mxPoint as="offset" />
          </mxGeometry>
        </mxCell>
      </root>
    </mxGraphModel>
  </diagram>
</mxfile>
